<?xml version="1.0" standalone="no"?>
<!DOCTYPE svg PUBLIC "-//W3C//DTD SVG 20010904//EN"
 "http://www.w3.org/TR/2001/REC-SVG-20010904/DTD/svg10.dtd">
<svg version="1.0" xmlns="http://www.w3.org/2000/svg"
 width="339.000000pt" height="275.000000pt" viewBox="0 0 339.000000 275.000000"
 preserveAspectRatio="xMidYMid meet">
<metadata>
Created by potrace 1.10, written by Peter Selinger 2001-2011
</metadata>
<g transform="translate(0.000000,275.000000) scale(0.100000,-0.100000)"
fill="#000000" stroke="none">
<path d="M1110 1668 c0 -376 -5 -701 -10 -722 -19 -84 -76 -127 -178 -133 -76
-5 -121 12 -156 60 -18 25 -21 47 -26 185 l-5 157 -199 3 -198 2 5 -147 c7
-219 43 -325 148 -437 112 -120 215 -156 444 -156 138 0 156 3 228 28 130 45
225 131 287 257 55 111 60 158 60 623 0 232 2 422 4 422 2 0 113 -110 247
-245 133 -135 248 -245 253 -245 6 0 116 105 243 232 l233 233 0 -623 0 -622
190 0 190 0 -2 898 -3 897 -172 3 -173 2 -252 -255 c-139 -140 -257 -255 -263
-255 -6 0 -127 117 -270 260 l-259 260 -183 0 -183 0 0 -682z"/>
</g>
</svg>
